<?xml version="1.0" encoding="UTF-8"?>
<svg version="1.1" xmlns="http://www.w3.org/2000/svg" width="1024" height="1536">
<defs>
  <!-- System theme gradient - matching globals.css --gradient-primary -->
  <linearGradient id="primaryGradient" x1="0%" y1="0%" x2="100%" y2="100%">
    <stop offset="0%" style="stop-color:hsl(221.2 83.2% 53.3%);stop-opacity:1" />
    <stop offset="100%" style="stop-color:hsl(217.2 91.2% 59.8%);stop-opacity:1" />
  </linearGradient>
  
  <!-- Muted text color from system theme -->
  <linearGradient id="mutedGradient" x1="0%" y1="0%" x2="100%" y2="100%">
    <stop offset="0%" style="stop-color:hsl(215.4 16.3% 46.9%);stop-opacity:1" />
    <stop offset="100%" style="stop-color:hsl(215.4 16.3% 56.9%);stop-opacity:1" />
  </linearGradient>
  
  <!-- Background gradient from system theme -->
  <linearGradient id="backgroundGradient" x1="0%" y1="0%" x2="100%" y2="100%">
    <stop offset="0%" style="stop-color:hsl(210 40% 98%);stop-opacity:1" />
    <stop offset="100%" style="stop-color:hsl(220 14.3% 97.9%);stop-opacity:1" />
  </linearGradient>
</defs>
<path d="M0 0 C337.92 0 675.84 0 1024 0 C1024 506.88 1024 1013.76 1024 1536 C686.08 1536 348.16 1536 0 1536 C0 1029.12 0 522.24 0 0 Z " fill="url(#backgroundGradient)" transform="translate(0,0)"/>
<path d="M0 0 C9.49699939 8.68297087 9.61206177 25.34340763 10.625 37.25 C13.71967754 69.65273187 24.73080665 101.29376621 49.8984375 123.37890625 C62.59289855 133.4357782 77.17876535 138.24327212 92.50976562 142.65942383 C116.81076596 149.71279491 116.81076596 149.71279491 123.1875 160 C126.74808311 167.355253 126.1459201 176.04029056 123.6875 183.6875 C121.22390234 189.64697745 117.54781303 194.30055151 113.1875 199 C112.61515625 199.62648438 112.0428125 200.25296875 111.453125 200.8984375 C95.47810342 216.52002939 70.47425733 220.2709216 49.21484375 220.30859375 C47.2509177 220.32731906 45.28699165 220.34606162 43.32307529 220.36577702 C38.55328652 220.4106069 33.78337001 220.4347545 29.01342773 220.45629883 C26.31486183 220.46920546 23.61655124 220.49000476 20.91810608 220.51856995 C18.3993537 220.54448005 15.88044264 220.55870355 13.36155701 220.5589447 C4.88451506 220.65655816 -5.12699137 220.96583203 -12.3125 226.0625 C-17.91092553 232.64064999 -19.56705668 240.40948435 -19.5 248.875 C-19.49564941 249.84058838 -19.49129883 250.80617676 -19.48681641 251.80102539 C-19.07573237 265.89424785 -15.68015768 279.69324238 -12.77050781 293.43603516 C-11.28304602 300.48252597 -9.9039189 307.54940163 -8.5625 314.625 C-8.37559097 315.60767349 -8.37559097 315.60767349 -8.18490601 316.61019897 C-5.71922139 329.67029001 -4.04967134 342.77134679 -2.8125 356 C-2.7182373 356.92288818 -2.62397461 357.84577637 -2.52685547 358.79663086 C-1.69516935 367.54570104 -1.56932945 376.28168313 -1.5625 385.0625 C-1.56182526 385.84868713 -1.56115051 386.63487427 -1.56045532 387.44488525 C-1.61907951 430.80158168 -9.6067551 476.8642804 -40.625 509.1875 C-46.26416205 514.66477223 -52.49362545 519.34502972 -58.8125 524 C-49.55610183 531.15956878 -40.08710439 537.90821235 -30.375 544.4375 C-13.57263498 555.76959108 1.85874369 567.64824408 16.1875 582 C16.88230469 582.66 17.57710937 583.32 18.29296875 584 C41.68108649 606.46663467 57.39405415 639.40529765 58.37109375 672.01171875 C58.8161563 696.75719634 53.13101841 717.56606879 39.1875 738 C59.03090936 733.51412288 76.42998982 727.28363486 92.1875 714 C93.41726563 713.071875 93.41726563 713.071875 94.671875 712.125 C110.87291766 698.43964719 117.66517945 677.03364338 119.390625 656.59375 C119.94824064 631.68691787 107.81167347 611.5580005 91.1875 594 C86.71808827 589.54438275 81.98633783 585.38419519 77.18359375 581.29296875 C61.70809475 568.09032921 49.0073459 554.51392882 42.1875 535 C41.82011719 533.97712891 41.82011719 533.97712891 41.4453125 532.93359375 C37.16320073 518.8847476 41.34043104 503.47488675 47.4375 490.625 C50.72248525 484.47438931 54.45018892 479.11272064 59.1875 474 C59.82945312 473.30390625 60.47140625 472.6078125 61.1328125 471.890625 C71.83723229 461.38971129 86.60941903 455.59586206 101.4375 455.6875 C102.37118408 455.69241455 103.30486816 455.6973291 104.2668457 455.70239258 C110.9625081 455.81625446 116.94739454 456.4164505 123.1875 459 C124.03183594 459.3403125 124.87617187 459.680625 125.74609375 460.03125 C132.17328721 462.92691098 139.93316084 467.49132168 143.1875 474 C143.57253376 477.54231061 143.60685959 479.36257342 141.625 482.375 C138.04767491 484.75988339 136.45923043 484.74585769 132.1875 484 C130.44312811 482.97570483 128.73771227 481.8838773 127.0625 480.75 C117.0708123 474.02980622 106.17149083 471.43865719 94.1875 473 C79.60749937 477.02329688 70.09933308 485.80095973 62.65234375 498.6484375 C56.68060112 509.96515093 55.65106664 520.54029899 59.1015625 532.93359375 C64.54750327 548.31152002 77.12072289 559.61600473 89.1875 570 C91.17240855 571.73490098 93.15545659 573.47187372 95.13671875 575.2109375 C96.58814389 576.47713314 98.05019536 577.73119573 99.51953125 578.9765625 C120.07773411 596.78287994 133.01720574 619.83911359 136.1875 647 C137.66217023 673.03360135 130.15397835 696.97217882 113.1875 717 C112.65640625 717.75152344 112.1253125 718.50304687 111.578125 719.27734375 C111.11921875 719.84582031 110.6603125 720.41429687 110.1875 721 C109.5275 721 108.8675 721 108.1875 721 C108.1875 721.66 108.1875 722.32 108.1875 723 C106.12385011 724.84372808 104.05529591 726.55396168 101.875 728.25 C101.29943359 728.71535156 100.72386719 729.18070313 100.13085938 729.66015625 C96.41580806 732.5759695 92.59078761 734.94555224 88.42895508 737.18261719 C87.445345 737.71312683 86.46173492 738.24363647 85.44831848 738.79022217 C84.70224838 739.18944885 83.95617828 739.58867554 83.1875 740 C84.3378624 740.01030746 85.48822479 740.02061493 86.67344666 740.03123474 C97.48955659 740.12879084 108.3056067 740.23150756 119.12161922 740.33933926 C124.68286549 740.39461529 130.24411696 740.44804263 135.80541992 740.49731445 C141.1676209 740.54488915 146.52975573 740.59722918 151.89187813 740.65294075 C153.94248378 740.67339565 155.99310759 740.69210342 158.04374504 740.70907402 C160.9054512 740.73304888 163.76703107 740.7631125 166.62866211 740.79467773 C167.48533478 740.8004332 168.34200745 740.80618866 169.22463989 740.81211853 C175.07344784 740.88594784 175.07344784 740.88594784 176.1875 742 C176.26069621 744.69654854 176.27992537 747.36691458 176.25 750.0625 C176.24323242 751.20041992 176.24323242 751.20041992 176.23632812 752.36132812 C176.2245068 754.24091871 176.20657078 756.12046899 176.1875 758 C157.86298748 758.04681068 139.53849056 758.08203317 121.21393108 758.10362434 C112.70469344 758.11391789 104.19549303 758.12794133 95.6862793 758.15087891 C88.26590362 758.17087179 80.84555494 758.18373039 73.42515308 758.18817699 C69.4995186 758.19077442 65.5739613 758.19683907 61.64835167 758.21146011 C57.94576915 758.22513743 54.24329486 758.22920235 50.54068947 758.22621536 C48.54965451 758.2270192 46.55863106 758.23772732 44.56762695 758.24884033 C24.3910687 758.20299311 24.3910687 758.20299311 18.1875 753 C15.9880187 750.17209547 15.52746026 746.89030153 15.61328125 743.33203125 C16.89117634 738.1422124 20.91086107 734.09435901 24.1875 730 C34.24844399 716.96888127 40.2029761 701.51187219 41.1875 685 C41.26355469 683.94425781 41.33960938 682.88851562 41.41796875 681.80078125 C42.62528974 650.05150222 28.75990494 620.46385535 7.5625 597.5 C-8.64557656 580.43886678 -26.99954951 566.71145697 -46.625 553.8125 C-68.87695003 539.14552018 -88.09238868 523.41776491 -95.8125 497 C-96.04582031 496.21238281 -96.27914063 495.42476562 -96.51953125 494.61328125 C-99.27580912 483.88560981 -98.88512675 472.48351822 -98.8046875 461.49609375 C-98.79296509 459.7966008 -98.79296509 459.7966008 -98.78100586 458.06277466 C-98.74431985 453.32693267 -98.70244261 448.5913057 -98.64111328 443.85571289 C-98.24273443 421.11952369 -98.24273443 421.11952369 -105.4375 399.8125 C-105.78304932 399.13888428 -106.12859863 398.46526855 -106.48461914 397.77124023 C-110.18888878 390.84658829 -115.06763663 385.3944201 -120.87353516 380.13183594 C-126.95040912 374.43004604 -130.67104183 368.57950338 -134.3125 361.125 C-134.83585937 360.09375 -135.35921875 359.0625 -135.8984375 358 C-139.58334662 350.68746014 -139.58334662 350.68746014 -140.8125 347 C-141.4725 347 -142.1325 347 -142.8125 347 C-142.97298828 348.94326172 -142.97298828 348.94326172 -143.13671875 350.92578125 C-143.69565374 355.92683002 -144.99455494 360.44181252 -146.625 365.1875 C-146.87314453 365.95513672 -147.12128906 366.72277344 -147.37695312 367.51367188 C-149.45171232 373.67459803 -151.86311038 379.24968047 -157.625 382.75 C-158.41003906 383.24757813 -159.19507813 383.74515625 -160.00390625 384.2578125 C-160.93074219 384.83273437 -161.85757812 385.40765625 -162.8125 386 C-176.41079515 394.50936261 -192.51840945 405.10957758 -199.8125 420 C-199.62240101 423.81815852 -199.17638908 426.31968564 -197.375 429.6875 C-190.91291206 435.51914034 -181.49474396 437.03715268 -173.23388672 439.07421875 C-165.51692374 441.07088032 -160.50537895 444.61247031 -155.8125 451 C-152.2145853 458.17058088 -152.70190236 467.55221818 -154.6171875 475.22265625 C-157.57919319 482.8115191 -162.15117083 489.50970507 -166.65283203 496.25195312 C-178.91490676 514.73541735 -186.6335299 532.56919639 -184.8125 555 C-184.74546875 556.12921875 -184.6784375 557.2584375 -184.609375 558.421875 C-183.79682415 562.90251253 -182.57995769 565.70756282 -178.82128906 568.45605469 C-173.77636499 571.58502732 -168.48509215 574.19561967 -163.15820312 576.80419922 C-158.7053366 579.07419716 -154.75604368 581.95345088 -150.8125 585 C-149.93078125 585.62068359 -149.93078125 585.62068359 -149.03125 586.25390625 C-144.74018763 589.44065109 -142.15835269 592.86128974 -140.8125 598 C-139.74354128 610.61371293 -140.33806622 623.35392222 -147.8125 634 C-148.34077393 634.41362793 -148.86904785 634.82725586 -149.41333008 635.25341797 C-151.07697738 636.97192831 -151.07697738 636.97192831 -150.89550781 639.64892578 C-150.77014648 640.6954834 -150.64478516 641.74204102 -150.515625 642.8203125 C-146.79349894 679.56359513 -150.64068273 721.16055268 -174.26123047 751.10424805 C-177.74995775 754.53476476 -180.7674776 754.72721831 -185.52992249 754.80802917 C-186.51133713 754.79274673 -187.49275177 754.77746429 -188.50390625 754.76171875 C-189.52677231 754.76508743 -190.54963837 754.76845612 -191.60350037 754.77192688 C-193.75939986 754.77162868 -195.91534243 754.75644127 -198.07104492 754.72729492 C-201.36834104 754.6875802 -204.66162102 754.70660937 -207.95898438 754.73242188 C-210.05730724 754.72486347 -212.1556212 754.71391073 -214.25390625 754.69921875 C-215.23734512 754.70620285 -216.220784 754.71318695 -217.23402405 754.72038269 C-221.9236083 754.62372062 -224.10171287 754.55553315 -227.8918457 751.59326172 C-234.09558742 743.2169881 -232.86911684 730.82540084 -231.52392578 720.86279297 C-229.10045966 708.21848046 -222.13150376 697.68612447 -214.75 687.4375 C-205.98496332 675.26616496 -201.22357395 663.95915511 -198.875 649.125 C-198.00636744 644.47447493 -197.30330583 641.40962429 -193.8125 638 C-187.44686912 634.86331232 -180.66234846 632.93789972 -173.875 630.9375 C-167.7528713 629.07135716 -162.9565182 627.28648772 -159.4375 621.6875 C-156.75030382 615.70340766 -156.84033164 608.383429 -157.8125 602 C-160.80439931 596.55046911 -166.29540794 594.04798787 -171.5625 591.125 C-172.50335449 590.5983374 -173.44420898 590.0716748 -174.41357422 589.52905273 C-187.12048052 582.51317469 -199.31270467 577.52212593 -213.4375 574.140625 C-224.34095848 571.43380968 -224.34095848 571.43380968 -228.25 567.625 C-230.85037347 563.25637258 -230.93399087 559.0240108 -230.98828125 554.01953125 C-231.5000018 525.78830195 -235.97286707 501.67707729 -256.8125 481 C-259.4511602 478.63374578 -262.12300988 476.30822774 -264.8125 474 C-264.4378553 498.41400102 -263.61399547 521.56660562 -256.79418945 545.19042969 C-255.24307952 550.66746583 -254.5120556 555.3049095 -254.8125 561 C-258.59716913 563.52311275 -262.43741287 563.43490965 -266.8125 563 C-270.99755326 562.07239254 -275.0837514 560.85906282 -279.1875 559.625 C-290.38037144 556.31556926 -301.13901346 553.71140361 -312.8125 553 C-313.70195312 552.92265625 -314.59140625 552.8453125 -315.5078125 552.765625 C-331.89376326 551.9440453 -349.57139966 558.62477787 -362.7578125 568.12109375 C-363.43585938 568.74113281 -364.11390625 569.36117187 -364.8125 570 C-364.8125 570.66 -364.8125 571.32 -364.8125 572 C-356.86924719 575.68995077 -349.50814603 577.98605902 -340.8125 579 C-340.1771936 579.08100449 -339.54188721 579.16200897 -338.8873291 579.24546814 C-333.250308 579.93109602 -327.68749813 580.18914393 -322.01171875 580.23828125 C-321.09526077 580.246353 -320.1788028 580.25442474 -319.23457336 580.26274109 C-317.30085081 580.27649355 -315.36710488 580.28725468 -313.43334961 580.29516602 C-311.49740239 580.30660607 -309.56148468 580.32692889 -307.62573242 580.35668945 C-295.33466667 580.54487701 -284.05474869 579.67915589 -272.07348633 576.86401367 C-268.26200274 576.0125886 -264.73106848 575.70259327 -260.8125 576 C-258.66234608 577.94391467 -257.96366889 579.22192482 -257.4140625 582.05078125 C-257.58449571 598.49758572 -262.02709833 612.86403387 -273.53515625 624.8125 C-283.75115482 634.62546604 -295.43606245 638.25109403 -309.6015625 638.02734375 C-310.87386719 638.01509766 -312.14617187 638.00285156 -313.45703125 637.99023438 C-316.08729882 637.95538785 -318.71751515 637.91640085 -321.34765625 637.87304688 C-344.84160254 637.67194059 -367.61972673 644.27347143 -384.8125 661 C-398.60196954 676.60986156 -406.18785045 695.75550616 -406.3125 716.5 C-406.32204712 717.84288086 -406.32204712 717.84288086 -406.33178711 719.21289062 C-406.17032359 727.61835374 -404.44096684 735.28752791 -399.5625 742.25 C-397.52360005 745.46771804 -396.819566 746.60430378 -396.75 750.5 C-397.8125 753 -397.8125 753 -400.8125 755 C-405.5505868 755.54371488 -407.7596871 755.58957522 -411.9375 753.25 C-416.21779558 749.19312645 -418.57862798 743.36287716 -420.8125 738 C-420.8125 737.34 -420.8125 736.68 -420.8125 736 C-421.68261719 735.88140625 -422.55273438 735.7628125 -423.44921875 735.640625 C-438.02490172 732.86430443 -454.054481 723.30737431 -462.56640625 711.08203125 C-468.1783225 701.70538122 -469.975374 692.92189503 -468.8125 682 C-465.93291494 672.70179787 -460.24795795 665.63689673 -451.7734375 660.84765625 C-445.16019608 657.98894432 -438.63211286 658.13225649 -431.875 660.4375 C-424.95929809 663.44620912 -418.98198507 668.7457724 -414.8125 675 C-414.3278125 674.17757812 -413.843125 673.35515625 -413.34375 672.5078125 C-398.64580296 648.03007762 -379.14045265 631.50248747 -351.51953125 623.82421875 C-339.67677453 621.19110846 -328.49529614 620.82766544 -316.43408203 621.11645508 C-305.81105404 621.35121174 -295.20055123 621.52672879 -286.40625 614.640625 C-281.125455 609.2045125 -278.1744456 602.08583681 -275.8125 595 C-276.65820557 595.14002441 -277.50391113 595.28004883 -278.37524414 595.42431641 C-289.35237032 597.08066084 -300.15975084 597.39847655 -311.25 597.375 C-312.17259613 597.37478851 -313.09519226 597.37457703 -314.04574585 597.37435913 C-359.63946067 597.27018612 -359.63946067 597.27018612 -375.8125 584 C-380.2447594 578.96878663 -381.11790778 576.11192259 -381.0234375 569.52734375 C-380.49683173 563.21782644 -376.30049612 558.19549943 -371.8125 554 C-357.88187347 543.62423829 -341.01295826 537.79212023 -323.8125 536 C-323.75304199 534.6234021 -323.75304199 534.6234021 -323.69238281 533.21899414 C-319.98205005 450.64359104 -299.07753881 379.83596275 -244.4453125 316.1015625 C-242.10746349 313.36706908 -239.86317752 310.5668698 -237.625 307.75 C-231.87744235 300.68871489 -225.53960146 294.17525177 -219.2590332 287.59082031 C-217.40914764 285.63183563 -215.5734487 283.66309257 -213.74682617 281.68261719 C-204.24150801 271.39170558 -194.37804203 261.50290676 -184.39428711 251.67773438 C-176.3682694 243.7702542 -168.75957007 235.88540737 -161.8125 227 C-160.90401695 225.92402621 -159.98873472 224.85369977 -159.0625 223.79296875 C-152.86066701 216.61133229 -147.66304441 209.1399681 -142.8125 201 C-142.17957031 199.95457031 -141.54664063 198.90914062 -140.89453125 197.83203125 C-136.09449791 189.38991076 -132.54104454 180.52500523 -129 171.5 C-116.54081673 139.74916225 -100.94573839 111.96389186 -77.375 87.0625 C-64.20713476 73.12659099 -54.36527205 58.81349619 -45.3125 41.9375 C-19.15770758 -6.81162936 -19.15770758 -6.81162936 0 0 Z " fill="url(#primaryGradient)" transform="translate(645.8125,179)"/>
<path d="M0 0 C0.66 0.33 1.32 0.66 2 1 C2.43896484 3.45825195 2.43896484 3.45825195 2.7109375 6.73828125 C2.81897705 7.94121826 2.9270166 9.14415527 3.03833008 10.38354492 C3.14943115 11.6801001 3.26053223 12.97665527 3.375 14.3125 C6.9420599 52.4184997 18.33667999 89.76369234 48 116 C62.47578142 127.7881823 79.3121143 133.86300041 97 139 C99.3315245 139.68157244 101.66168052 140.36641603 103.98803711 141.06542969 C105.91659248 141.64374663 107.85068679 142.20350353 109.78515625 142.76171875 C113.74935703 144.28863448 117.05275424 146.10550848 119 150 C119.35849728 157.37257448 116.62440402 162.45071517 112 168 C102.6043334 178.35440809 87.42435095 183.24484391 73.79580688 184.2321167 C65.5024653 184.58442616 57.20335378 184.61137926 48.90368652 184.62164307 C44.19909981 184.6294279 39.49474363 184.65820346 34.79031372 184.69662476 C32.30150112 184.71592459 29.81258651 184.72562655 27.32369995 184.72354126 C12.08017811 184.81590032 -3.78889049 186.06424773 -15.3203125 197.1171875 C-25.10203111 208.08181161 -26.59622726 220.78714858 -26 235 C-25.19024789 246.47046306 -23.22964926 257.63660144 -20.77227783 268.85372925 C-9.20014206 321.94801888 -1.29604926 376.64295985 -16 430 C-16.32242676 431.17780029 -16.32242676 431.17780029 -16.65136719 432.37939453 C-21.40066245 449.18650445 -29.00429486 465.16685884 -41 478 C-41.55945313 478.63808594 -42.11890625 479.27617188 -42.6953125 479.93359375 C-47.6402477 485.29657903 -53.72444983 489.33370741 -60 493 C-60.66 493 -61.32 493 -62 493 C-70.49888006 477.46916986 -73.20022095 462.82742504 -73.02734375 445.171875 C-73.01469479 442.6549493 -73.00233403 440.13802215 -72.99023438 437.62109375 C-72.96547755 433.68696441 -72.93752478 429.75291285 -72.90405273 425.81884766 C-72.87363017 421.99901876 -72.85600807 418.17928728 -72.83984375 414.359375 C-72.82638412 413.19960144 -72.8129245 412.03982788 -72.79905701 410.84490967 C-72.73503229 389.72686625 -79.79596643 370.74422998 -94 355 C-95.8251472 353.24146401 -97.65888022 351.49180627 -99.5 349.75 C-106.57738119 342.78976167 -110.79187022 334.63254946 -115.0234375 325.796875 C-120.94583968 313.11043078 -120.94583968 313.11043078 -132 305 C-135.8291479 304.42970138 -137.41362216 304.59512006 -140.625 306.8125 C-145.40557439 313.22853404 -146.97602285 320.73602653 -148.80151367 328.41015625 C-149.81140191 332.62183605 -150.89398713 336.81268707 -152 341 C-152.26296875 342.03125 -152.5259375 343.0625 -152.796875 344.125 C-155.42877544 351.32809595 -161.51484559 354.13121308 -167.84814453 357.75390625 C-183.65605212 366.81791286 -200.09692549 381.29077647 -206 399 C-206.71556382 406.74735439 -206.08214801 413.13756136 -201.1484375 419.3203125 C-192.23626433 428.86232122 -182.73667611 431.66633263 -170.22363281 434.03808594 C-163.49484141 435.42881689 -163.49484141 435.42881689 -160.8984375 438.42578125 C-158.69955454 444.72605894 -159.84481066 450.09454287 -162.41015625 456.046875 C-164.83482679 460.55068564 -167.77801524 464.65643978 -170.71679688 468.83618164 C-186.92488003 491.92622554 -191.10297022 513.14486458 -192 541 C-195.96 540.34 -199.92 539.68 -204 539 C-204.85808696 535.56765217 -205.13487482 533.03850305 -205.17578125 529.5546875 C-205.77995868 498.50746138 -213.47172353 473.49674165 -235.19140625 450.66796875 C-242.69627177 443.53886841 -250.22123056 437.41716106 -260.9140625 437.68359375 C-263.1994079 437.87394799 -263.1994079 437.87394799 -265.4375 439.6875 C-270.02728777 446.4803859 -270.15689134 453.8757114 -270.16796875 461.80859375 C-270.17129715 462.65237076 -270.17462555 463.49614777 -270.17805481 464.36549377 C-270.18310293 466.14982563 -270.18546379 467.93416687 -270.18530273 469.71850586 C-270.18746791 472.39779058 -270.20558685 475.07664852 -270.22460938 477.75585938 C-270.27015762 491.29491876 -269.22185745 504.26079826 -265.875 517.4375 C-265.60236328 518.5522168 -265.60236328 518.5522168 -265.32421875 519.68945312 C-264.88981415 521.46136663 -264.44604405 523.23098063 -264 525 C-265.22589844 524.71382812 -266.45179688 524.42765625 -267.71484375 524.1328125 C-273.62667202 522.81907288 -279.58669504 521.84755415 -285.5625 520.875 C-286.66658203 520.69324219 -287.77066406 520.51148438 -288.90820312 520.32421875 C-291.60510949 519.88057182 -294.30236913 519.43921612 -297 519 C-298.29397792 450.63483342 -281.07489012 385.19348409 -240 330 C-239.5659082 329.41428223 -239.13181641 328.82856445 -238.68457031 328.22509766 C-233.279249 320.9688381 -227.55223129 314.00960086 -221.66796875 307.140625 C-219.13791244 304.18083319 -216.69106065 301.15871204 -214.25 298.125 C-211.2673747 294.45775074 -208.18856535 291.05571932 -204.78259277 287.78186035 C-203.00479462 286.00479265 -201.36060641 284.16428994 -199.72070312 282.25976562 C-196.25612095 278.27456073 -192.70612454 274.38263363 -189.09375 270.53125 C-188.45207886 269.84712036 -187.81040771 269.16299072 -187.14929199 268.45812988 C-179.76962439 260.6352631 -172.14125501 253.06595405 -164.5 245.5 C-161.71572628 242.74260892 -158.93501691 239.98168924 -156.15625 237.21875 C-155.53947388 236.61027222 -154.92269775 236.00179443 -154.28723145 235.37487793 C-132.82697324 214.03441966 -116.10090549 189.52505414 -104.92837524 161.4230957 C-103.43861779 157.68423661 -101.91429004 153.95951767 -100.390625 150.234375 C-100.09460892 149.51000244 -99.79859283 148.78562988 -99.49360657 148.03930664 C-87.85629429 119.65595647 -72.02464202 96.56831245 -50.73828125 74.63671875 C-37.88680791 61.29417904 -28.94764996 46.58784136 -20.47705078 30.19873047 C-14.77806315 19.23795051 -8.49302134 9.02383518 0 0 Z " fill="url(#mutedGradient)" transform="translate(636,198)"/>
<path d="M0 0 C4.58980814 -0.07447267 9.17926014 -0.12875322 13.76953125 -0.16479492 C15.32916394 -0.17982869 16.88875472 -0.20026135 18.44824219 -0.22631836 C20.69737116 -0.26294211 22.94593847 -0.27978021 25.1953125 -0.29296875 C25.8861795 -0.30845261 26.57704651 -0.32393646 27.28884888 -0.33988953 C32.74133858 -0.34176083 36.47965653 1.04321592 40.76660156 4.37158203 C45.69382118 9.79082322 47.06379253 15.87984462 48.75 22.875 C49.07291016 24.14682129 49.39582031 25.41864258 49.72851562 26.72900391 C50.64069493 30.33064615 51.52472245 33.93868714 52.40258789 37.54882812 C53.04184901 40.17170579 53.68728792 42.79300849 54.33398438 45.4140625 C57.25770329 57.26763824 60.143992 69.12993712 63 81 C65.79544459 73.27219581 68.58609058 65.54266485 71.375 57.8125 C71.78572754 56.67474121 72.19645508 55.53698242 72.61962891 54.36474609 C78.58001544 37.86217904 78.58001544 37.86217904 84.3515625 21.29296875 C84.58749115 20.60241898 84.8234198 19.9118692 85.0664978 19.20039368 C86.11543002 16.12121753 87.15356619 13.03876182 88.18115234 9.95239258 C88.53387207 8.90591553 88.8865918 7.85943848 89.25 6.78125 C89.54390625 5.89501953 89.8378125 5.00878906 90.140625 4.09570312 C91 2 91 2 93 0 C94.97119141 -0.22705078 94.97119141 -0.22705078 97.3515625 -0.1953125 C98.20234375 -0.18886719 99.053125 -0.18242188 99.9296875 -0.17578125 C101.26386719 -0.15064453 101.26386719 -0.15064453 102.625 -0.125 C103.97078125 -0.11146484 103.97078125 -0.11146484 105.34375 -0.09765625 C107.56277911 -0.07404956 109.78121219 -0.03942593 112 0 C115.92745561 10.36960801 119.73572788 20.77208137 123.3984375 31.23828125 C123.88308826 32.62070885 124.36775869 34.00312956 124.85244751 35.38554382 C125.85365005 38.24281072 126.85330429 41.10061398 127.85205078 43.95874023 C129.13206881 47.62076219 130.41814196 51.28062833 131.70554161 54.94006062 C132.70207529 57.77590707 133.69443745 60.61319994 134.68562698 63.4509182 C135.15855969 64.80265978 135.63303008 66.1538644 136.10908127 67.50451088 C136.76901262 69.37817326 137.42250634 71.25409935 138.07568359 73.13012695 C138.63477921 74.72652763 138.63477921 74.72652763 139.20516968 76.35517883 C140 79 140 79 140 82 C140.66 82 141.32 82 142 82 C142.11238007 81.39051514 142.22476013 80.78103027 142.34054565 80.15307617 C143.49940358 74.091961 144.98440686 68.22033303 146.7578125 62.3125 C147.1543956 60.97256485 147.1543956 60.97256485 147.55899048 59.6055603 C148.40981597 56.7356771 149.26713901 53.86778722 150.125 51 C150.71278936 49.02431801 151.30035337 47.04856896 151.88769531 45.07275391 C155.13602974 34.16170778 158.41216906 23.2590245 161.75 12.375 C162.07242676 11.323125 162.39485352 10.27125 162.72705078 9.1875 C164.87142366 2.25715268 164.87142366 2.25715268 166 0 C174.91 0 183.82 0 193 0 C192.2654587 5.14178907 191.4379691 9.24607109 189.88964844 14.10473633 C189.67606627 14.78031051 189.46248409 15.45588469 189.24242973 16.15193081 C188.5365631 18.38030386 187.82295768 20.60611832 187.109375 22.83203125 C186.60709345 24.4131441 186.10534474 25.9944263 185.60409546 27.5758667 C184.26745479 31.78876339 182.92444011 35.9996018 181.58017731 40.21007156 C179.37289747 47.12942212 177.17777492 54.0526488 174.98051834 60.9751873 C174.16557066 63.54212456 173.34992899 66.10884066 172.53427124 68.67555237 C169.51154035 78.19352577 166.51831572 87.71935224 163.5859375 97.265625 C163.27684448 98.27151169 162.96775146 99.27739838 162.64929199 100.31376648 C161.28551185 104.75936022 159.92941402 109.20717753 158.58105469 113.6574707 C158.1192114 115.16880418 157.65730249 116.68011761 157.1953125 118.19140625 C156.81391113 119.45154541 156.43250977 120.71168457 156.03955078 122.01000977 C155 125 155 125 153 128 C150.66162109 128.34057617 150.66162109 128.34057617 147.7734375 128.29296875 C146.7421875 128.28330078 145.7109375 128.27363281 144.6484375 128.26367188 C143.56820312 128.23853516 142.48796875 128.21339844 141.375 128.1875 C140.28703125 128.17396484 139.1990625 128.16042969 138.078125 128.14648438 C135.38492591 128.11104754 132.69270626 128.06164331 130 128 C125.54450483 119.99401271 122.59048805 111.60441158 119.63632202 102.96981812 C118.23267948 98.86818692 116.80693483 94.77424366 115.3828125 90.6796875 C115.09885117 89.86169174 114.81488983 89.04369598 114.52232361 88.20091248 C110.53112395 76.73357291 106.27591066 65.36380099 102 54 C100.26782009 56.59826986 99.34219204 58.53405243 98.32348633 61.42944336 C98.00587845 62.32565903 97.68827057 63.22187469 97.36103821 64.14524841 C97.02146591 65.11696487 96.68189362 66.08868134 96.33203125 67.08984375 C95.9741301 68.10357559 95.61622894 69.11730743 95.2474823 70.16175842 C94.09857917 73.41897697 92.955484 76.67820027 91.8125 79.9375 C91.06222592 82.06719013 90.31157869 84.19674884 89.56054688 86.32617188 C85.22928399 98.61371657 85.22928399 98.61371657 80.95849609 110.92236328 C80.63966965 111.84513565 80.3208432 112.76790802 79.99235535 113.71864319 C79.3966659 115.44462889 78.80442501 117.17181012 78.21626282 118.90037537 C77.82050301 120.04519127 77.82050301 120.04519127 77.41674805 121.21313477 C77.19004929 121.87579849 76.96335052 122.53846222 76.7297821 123.22120667 C76 125 76 125 74 128 C70.92724609 128.34057617 70.92724609 128.34057617 67.0234375 128.29296875 C66.33819 128.28872391 65.6529425 128.28447906 64.94692993 128.28010559 C62.75588871 128.26329753 60.56576368 128.22564405 58.375 128.1875 C56.89063827 128.17245579 55.40626215 128.15876693 53.921875 128.14648438 C50.28095167 128.1133879 46.64056522 128.06159207 43 128 C40.02045946 120.80462672 37.41626805 113.53103436 34.96582031 106.14038086 C34.58484695 104.99935913 34.2038736 103.8583374 33.81135559 102.68273926 C32.77842242 99.58698601 31.74814409 96.49036584 30.71918964 93.39328837 C29.63881953 90.14332918 28.55524677 86.89443791 27.47210693 83.645401 C25.65790484 78.20186223 23.84601504 72.75755831 22.03564453 67.31274414 C19.94107913 61.01325328 17.84333738 54.71482732 15.74381375 48.41698736 C13.50546817 41.70262462 11.26940285 34.98750416 9.03401852 28.27215505 C8.38978846 26.33733137 7.74513084 24.40265059 7.10037994 22.46800041 C5.90427291 18.87752463 4.71013871 15.2863991 3.51660156 11.69506836 C3.15820694 10.62033768 2.79981232 9.54560699 2.43055725 8.43830872 C2.10818588 7.46692963 1.78581451 6.49555054 1.45367432 5.49473572 C1.17127018 4.64584746 0.88886604 3.79695921 0.59790421 2.92234707 C0 1 0 1 0 0 Z " fill="#010101" transform="translate(111,971)"/>
<path d="M0 0 C11.06781903 7.09475579 18.5965651 17.45476774 21.75 30.25 C22.75 36.25 22.75 36.25 22.75 51.25 C-2 51.25 -26.75 51.25 -52.25 51.25 C-48.8927885 61.32163451 -46.246517 64.7517415 -37.25 69.25 C-29.90719207 71.50932552 -22.07140611 70.68414432 -15.25 67.25 C-14.4559375 66.3940625 -13.661875 65.538125 -12.84375 64.65625 C-8.03574733 60.4932233 -1.34078314 61.73553338 4.625 61.9375 C6.51605469 61.97133789 6.51605469 61.97133789 8.4453125 62.00585938 C11.54809499 62.06462419 14.64843199 62.14674149 17.75 62.25 C16.20551382 72.4761059 9.89165133 79.18028604 1.75 85.25 C-9.51326078 92.81781047 -25.79176033 95.02509018 -39.01171875 92.78125 C-52.70869114 89.49866603 -65.06040792 82.31842088 -72.6875 70.25 C-79.29494734 58.21100697 -81.42961729 43.97389938 -78.0625 30.5625 C-73.64551486 16.51770853 -65.22355117 5.50901078 -52.25 -1.75 C-34.97085956 -9.28664636 -16.62326972 -9.19050864 0 0 Z " fill="#010101" transform="translate(715.25,1008.75)"/>
<path d="M0 0 C1.12341797 -0.01224609 2.24683594 -0.02449219 3.40429688 -0.03710938 C5.01208008 -0.04000977 5.01208008 -0.04000977 6.65234375 -0.04296875 C8.13528931 -0.04913208 8.13528931 -0.04913208 9.64819336 -0.05541992 C12.0625 0.1875 12.0625 0.1875 14.0625 2.1875 C14.3409729 5.08547974 14.3409729 5.08547974 14.38134766 8.84033203 C14.39139328 9.52337402 14.4014389 10.20641602 14.41178894 10.91015625 C14.4427237 13.17186629 14.45968423 15.43345744 14.4765625 17.6953125 C14.49526592 19.26188182 14.5148387 20.82844099 14.5352478 22.39498901 C14.58666252 26.52132183 14.62623803 30.64768734 14.66339111 34.77416992 C14.70337241 38.9836441 14.75449146 43.19298118 14.8046875 47.40234375 C14.90155728 55.66396899 14.98592645 63.92566185 15.0625 72.1875 C15.53482056 71.64625488 16.00714111 71.10500977 16.49377441 70.54736328 C17.11780151 69.83306152 17.74182861 69.11875977 18.38476562 68.3828125 C19.00146118 67.67656738 19.61815674 66.97032227 20.25354004 66.24267578 C22.65051161 63.51945469 25.10054393 60.85220539 27.5625 58.1875 C30.68910014 54.80199244 33.76800182 51.38925415 36.75 47.875 C37.265625 47.30144775 37.78125 46.72789551 38.3125 46.13696289 C39.43180483 44.89008104 40.52243905 43.61645917 41.57348633 42.31152344 C45.21498671 38.3885367 48.15756612 36.79951811 53.58256531 36.52461243 C57.08256714 36.48912945 60.56609411 36.60282884 64.0625 36.75 C65.51945606 36.7851679 66.97649408 36.81709729 68.43359375 36.84570312 C71.97828515 36.92227929 75.51986102 37.04275317 79.0625 37.1875 C77.68241488 40.03461341 76.30182575 42.26347696 74.1875 44.625 C73.56875 45.31722656 72.95 46.00945313 72.3125 46.72265625 C68.57989623 50.81167184 64.82186439 54.87700571 61.0625 58.94140625 C54.72498995 65.79696339 48.48687859 72.57209791 43.0625 80.1875 C43.53558594 80.70957031 44.00867188 81.23164062 44.49609375 81.76953125 C49.87741386 87.75926572 54.99613379 93.93058118 60.0625 100.1875 C65.39185917 106.74671129 70.77668917 113.25194299 76.25732422 119.68505859 C77.53059934 121.18173178 78.79670612 122.68449435 80.0625 124.1875 C80.82949219 125.07695313 81.59648438 125.96640625 82.38671875 126.8828125 C84.0625 129.1875 84.0625 129.1875 84.0625 132.1875 C79.77593866 132.33675086 75.49078527 132.4451289 71.20239258 132.51708984 C69.74639517 132.54711041 68.29057631 132.58794228 66.83520508 132.64013672 C53.18470342 133.11713267 53.18470342 133.11713267 48.859375 129.53515625 C47.35131836 127.87695312 47.35131836 127.87695312 46.0625 126.1875 C45.25425781 125.22972656 44.44601562 124.27195312 43.61328125 123.28515625 C42.87464844 122.28355469 42.13601563 121.28195312 41.375 120.25 C40.5316748 119.11850254 39.68653801 117.98835363 38.83984375 116.859375 C38.39753418 116.26833984 37.95522461 115.67730469 37.49951172 115.06835938 C34.37512629 110.9789497 31.09246941 107.01001648 27.8215332 103.03735352 C24.0625 98.40605164 24.0625 98.40605164 24.0625 96.1875 C22.93355124 97.12024109 21.80949124 98.05890122 20.6875 99 C20.06101562 99.52207031 19.43453125 100.04414062 18.7890625 100.58203125 C16.33356497 102.86531063 15.13497288 104.53892323 14.75952148 107.89892578 C14.73446533 108.9661084 14.70940918 110.03329102 14.68359375 111.1328125 C14.63235352 112.87111328 14.63235352 112.87111328 14.58007812 114.64453125 C14.55365234 115.85496094 14.52722656 117.06539062 14.5 118.3125 C14.44035366 120.71104445 14.37677333 123.10949545 14.30859375 125.5078125 C14.28466553 126.57273926 14.2607373 127.63766602 14.23608398 128.73486328 C14.0625 131.1875 14.0625 131.1875 13.0625 132.1875 C11.22090977 132.28709621 9.37553033 132.31830411 7.53125 132.3203125 C6.41105469 132.32160156 5.29085937 132.32289063 4.13671875 132.32421875 C2.95722656 132.32035156 1.77773438 132.31648438 0.5625 132.3125 C-1.20673828 132.31830078 -1.20673828 132.31830078 -3.01171875 132.32421875 C-4.69201172 132.32228516 -4.69201172 132.32228516 -6.40625 132.3203125 C-7.44201172 132.31918457 -8.47777344 132.31805664 -9.54492188 132.31689453 C-11.9375 132.1875 -11.9375 132.1875 -12.9375 131.1875 C-13.03584335 129.50689999 -13.06382003 127.82214667 -13.06448364 126.13867188 C-13.06730347 125.04490234 -13.07012329 123.95113281 -13.07302856 122.82421875 C-13.07100433 121.61378906 -13.0689801 120.40335938 -13.06689453 119.15625 C-13.06864685 117.88974609 -13.07039917 116.62324219 -13.07220459 115.31835938 C-13.07677845 111.83498181 -13.07498956 108.35163373 -13.0718255 104.86825562 C-13.06930166 101.23052895 -13.07163951 97.59280488 -13.07321167 93.95507812 C-13.07503329 87.84504745 -13.07262725 81.73502884 -13.06787109 75.625 C-13.06242849 68.55122155 -13.06419115 61.47747191 -13.0696975 54.40369415 C-13.07422884 48.34086103 -13.07487908 42.2780366 -13.07225883 36.21520233 C-13.07069617 32.58950833 -13.07050199 28.9638279 -13.07379532 25.33813477 C-13.07720819 21.29832235 -13.07248396 17.25855997 -13.06689453 13.21875 C-13.06891876 12.00832031 -13.07094299 10.79789063 -13.07302856 9.55078125 C-13.07020874 8.45701172 -13.06738892 7.36324219 -13.06448364 6.23632812 C-13.06410662 5.27988403 -13.06372959 4.32343994 -13.06334114 3.3380127 C-12.73948674 -2.19636983 -4.1780737 0.00238884 0 0 Z " fill="#000000" transform="translate(555.9375,966.8125)"/>
<path d="M0 0 C8.58 0 17.16 0 26 0 C27.55658482 1.55658482 27.16309399 3.07867736 27.20532227 5.24438477 C27.22526749 6.14524307 27.24521271 7.04610138 27.26576233 7.97425842 C27.28247482 8.95341721 27.29918732 9.93257599 27.31640625 10.94140625 C27.33718735 11.93881332 27.35796844 12.9362204 27.37937927 13.96385193 C27.44498637 17.16332843 27.50381134 20.36288982 27.5625 23.5625 C27.60567462 25.72592039 27.64928855 27.88933206 27.69335938 30.05273438 C27.80067903 35.36839874 27.90242427 40.68414834 28 46 C28.52456787 45.52296631 29.04913574 45.04593262 29.58959961 44.55444336 C30.29093018 43.92675049 30.99226074 43.29905762 31.71484375 42.65234375 C32.40441162 42.03093506 33.09397949 41.40952637 33.80444336 40.76928711 C40.69595492 35.21576945 48.4424112 34.16666819 57.11328125 34.4296875 C66.93098676 35.87027544 75.29445245 40.90629572 81.453125 48.68359375 C88.77808707 59.65253947 89.30266915 71.42817159 89.23046875 84.28515625 C89.22927393 85.63610286 89.22882443 86.98705032 89.2290802 88.33799744 C89.22752821 91.14587731 89.21933045 93.95362735 89.20581055 96.76147461 C89.18867418 100.36626882 89.18500108 103.97092301 89.18575573 107.57575321 C89.18548469 110.35431766 89.18001652 113.13285132 89.17275429 115.91140556 C89.16802053 117.88852948 89.16629193 119.86565984 89.16459656 121.8427887 C89.15821671 123.03170212 89.15183685 124.22061554 89.14526367 125.44555664 C89.14145187 126.49683243 89.13764008 127.54810822 89.13371277 128.63124084 C89 131 89 131 88 132 C86.07332493 132.08748207 84.14348139 132.10697334 82.21484375 132.09765625 C81.04501953 132.09443359 79.87519531 132.09121094 78.66992188 132.08789062 C77.43822266 132.07951172 76.20652344 132.07113281 74.9375 132.0625 C73.08415039 132.05573242 73.08415039 132.05573242 71.19335938 132.04882812 C68.12885883 132.03699608 65.06445279 132.02051173 62 132 C61.99413376 131.35013123 61.98826752 130.70026245 61.98222351 130.03070068 C61.91787854 123.2161554 61.83335674 116.40206458 61.73754883 109.58789062 C61.70446391 107.05084252 61.67638183 104.51372372 61.65356445 101.9765625 C61.61971515 98.31219586 61.56738435 94.64846764 61.51171875 90.984375 C61.50532883 89.86512634 61.4989389 88.74587769 61.49235535 87.5927124 C61.33675544 79.10125598 60.91114746 69.83045718 55.625 62.875 C50.77652368 59.41180263 46.99891436 58.2882644 41 59 C35.37529319 61.26462915 32.19786209 64.36610386 29.69140625 69.83984375 C27.5744183 76.45393606 27.80164178 83.27401429 27.71875 90.14453125 C27.70034058 91.31006027 27.68193115 92.47558929 27.66296387 93.67643738 C27.58437924 98.65423548 27.51623866 103.63216158 27.44775391 108.61010742 C27.39621193 112.24665396 27.33892416 115.88307765 27.28125 119.51953125 C27.26767456 120.65485794 27.25409912 121.79018463 27.2401123 122.95991516 C27.22339478 124.00157333 27.20667725 125.04323151 27.18945312 126.11645508 C27.17066101 127.49828728 27.17066101 127.49828728 27.15148926 128.90803528 C27 131 27 131 26 132 C17.42 132 8.84 132 0 132 C0 88.44 0 44.88 0 0 Z " fill="#000000" transform="translate(310,967)"/>
<path d="M0 0 C1.17280014 0.00539291 1.17280014 0.00539291 2.36929321 0.01089478 C3.18873917 0.01074875 4.00818512 0.01060272 4.85246277 0.01045227 C7.57416385 0.01115164 10.29579737 0.01894515 13.01748657 0.02676392 C14.89935773 0.02862801 16.78122938 0.03005195 18.6631012 0.03105164 C23.62631561 0.0348775 28.58950096 0.04470836 33.55270386 0.05575562 C38.61322639 0.06596827 43.67375359 0.07054894 48.73428345 0.07559204 C58.67114521 0.08633057 68.60798535 0.10340781 78.54483032 0.12442017 C78.64443633 3.96569378 78.49332607 5.81639677 76.15811157 8.91738892 C75.63861938 9.62057251 75.1191272 10.3237561 74.58389282 11.04824829 C73.72924438 12.16876587 73.72924438 12.16876587 72.85733032 13.31192017 C71.65519573 14.93017827 70.45338159 16.54867445 69.25186157 18.16738892 C68.63391724 18.99158325 68.0159729 19.81577759 67.37930298 20.66494751 C64.55491949 24.45159101 61.80146225 28.28833589 59.04483032 32.12442017 C57.96713495 33.6182198 56.88900801 35.11170816 55.81045532 36.60488892 C55.27484985 37.34658325 54.73924438 38.08827759 54.18740845 38.85244751 C52.51189168 41.16998007 50.83337692 43.48531589 49.15420532 45.80020142 C48.59152954 46.57686157 48.02885376 47.35352173 47.4491272 48.15371704 C46.39945512 49.60243801 45.34879157 51.05044153 44.29678345 52.49746704 C39.61080178 58.96917103 35.07809213 65.54536894 30.54483032 72.12442017 C31.10415253 72.12219955 31.66347473 72.11997894 32.23974609 72.11769104 C38.046838 72.09561435 43.85391805 72.08050355 49.66104126 72.06948853 C51.8299915 72.06445126 53.99893832 72.05762125 56.1678772 72.04898071 C59.28051595 72.03688865 62.39310992 72.03118589 65.50576782 72.02676392 C66.47976532 72.02160263 67.45376282 72.01644135 68.45727539 72.01112366 C69.35805817 72.01104813 70.25884094 72.0109726 71.18692017 72.01089478 C71.98189911 72.00867416 72.77687805 72.00645355 73.59594727 72.00416565 C75.54483032 72.12442017 75.54483032 72.12442017 77.54483032 73.12442017 C77.57370846 76.60356957 77.59158719 80.08268847 77.60733032 83.56192017 C77.61570923 84.55514282 77.62408813 85.54836548 77.63272095 86.57168579 C77.6359436 87.51592407 77.63916626 88.46016235 77.64248657 89.43301392 C77.64772339 90.30756226 77.65296021 91.1821106 77.65835571 92.0831604 C77.54483032 94.12442017 77.54483032 94.12442017 76.54483032 95.12442017 C73.74493313 95.21961384 70.96976858 95.24995961 68.16958618 95.23794556 C66.85263512 95.2381646 66.85263512 95.2381646 65.50907898 95.23838806 C62.59258597 95.23768861 59.67615599 95.22989472 56.75967407 95.22207642 C54.7432814 95.22021235 52.72688828 95.21878839 50.710495 95.2177887 C45.39217895 95.21396261 40.07389002 95.20413155 34.75558472 95.19308472 C29.33312344 95.18287254 23.91065781 95.17829149 18.4881897 95.17324829 C7.84039129 95.16250936 -2.80738694 95.14543186 -13.45516968 95.12442017 C-14.45516968 92.12442017 -14.45516968 92.12442017 -13.58163452 90.3253479 C-13.1145105 89.65962769 -12.64738647 88.99390747 -12.16610718 88.30801392 C-11.38215576 87.17601562 -11.38215576 87.17601562 -10.58236694 86.02114868 C-10.00414185 85.20960327 -9.42591675 84.39805786 -8.83016968 83.56192017 C-8.23840942 82.71492554 -7.64664917 81.86793091 -7.03695679 80.99526978 C-2.56112795 74.61316819 1.99891726 68.29025079 6.58291626 61.98550415 C12.4525206 53.90817235 18.16417082 45.72158815 23.86807251 37.52676392 C25.06784279 35.80781524 26.27213632 34.09202013 27.47940063 32.37832642 C28.11200806 31.47984985 28.74461548 30.58137329 29.39639282 29.65567017 C29.97469849 28.83647095 30.55300415 28.01727173 31.14883423 27.17324829 C32.5698882 25.1860176 32.5698882 25.1860176 33.54483032 23.12442017 C31.83384155 23.14013062 31.83384155 23.14013062 30.08828735 23.15615845 C25.86533738 23.19229733 21.64240113 23.21529829 17.41934204 23.23428345 C15.58989159 23.24435501 13.76045729 23.25801292 11.93106079 23.27529907 C9.30488098 23.29949693 6.67891357 23.31089149 4.05264282 23.31973267 C2.82132126 23.33521652 2.82132126 23.33521652 1.56512451 23.35101318 C-0.4430611 23.35141201 -2.4507235 23.24691556 -4.45516968 23.12442017 C-6.45516968 21.12442017 -6.45516968 21.12442017 -6.6980896 19.07730103 C-6.69398071 18.25624878 -6.68987183 17.43519653 -6.68563843 16.58926392 C-6.68370483 15.6978772 -6.68177124 14.80649048 -6.67977905 13.88809204 C-6.66753296 12.95545532 -6.65528687 12.0228186 -6.64266968 11.06192017 C-6.64202515 10.12541626 -6.64138062 9.18891235 -6.64071655 8.22402954 C-6.58720375 0.01278687 -6.58720375 0.01278687 0 0 Z " fill="#000000" transform="translate(830.4551696777344,1003.8755798339844)"/>
<path d="M0 0 C5.48765623 4.89768636 9.20938463 9.83753852 11 17 C10.505 19.475 10.505 19.475 10 22 C1.75 22 -6.5 22 -15 22 C-19 15 -19 15 -19 13 C-24.62950028 11.38785673 -30.50792393 11.13540218 -36.0625 13.0625 C-38.29434485 14.98341176 -38.29434485 14.98341176 -39 18.4375 C-39 22.45993801 -38.74281863 23.2104667 -36 26 C-33.00565697 27.4598368 -33.00565697 27.4598368 -29.49609375 28.5859375 C-28.5392141 28.92233749 -28.5392141 28.92233749 -27.56300354 29.26553345 C-25.52524804 29.98114614 -23.48230222 30.67980104 -21.4375 31.375 C3.62193006 39.91997339 3.62193006 39.91997339 10 50 C12.83303545 56.56749127 13.22302741 64.66321092 11.27734375 71.5625 C6.7694283 82.36689654 -0.61729242 86.5785998 -11 91 C-22.0498828 95.16665016 -37.12603014 94.21029983 -48 90 C-55.66294315 86.09154368 -61.87165824 80.68966805 -64.875 72.5 C-66.03090403 68.5291297 -66.34303691 65.11644295 -66 61 C-63.4989181 58.4989181 -56.981551 59.66927106 -53.625 59.625 C-52.02398437 59.56892578 -52.02398437 59.56892578 -50.390625 59.51171875 C-47.51009297 59.47906788 -44.8379773 59.50174694 -42 60 C-39.86328125 62.35546875 -39.86328125 62.35546875 -39 65 C-37.03207821 68.67915812 -35.910372 70.49085129 -32 72 C-29.09003485 72.39035935 -29.09003485 72.39035935 -26 72.375 C-24.96875 72.40335938 -23.9375 72.43171875 -22.875 72.4609375 C-19.27673808 71.88404225 -18.14057955 70.91118819 -16 68 C-15.33889588 65.79450594 -15.33889588 65.79450594 -15.4375 63.5 C-15.41558594 62.7471875 -15.39367187 61.994375 -15.37109375 61.21875 C-16.34411827 57.78596785 -17.99797043 56.90242685 -21 55 C-24.23554814 53.58678057 -27.54593444 52.42233623 -30.875 51.25 C-58.16542249 41.18256149 -58.16542249 41.18256149 -63 31 C-65.35503646 23.8443123 -65.0880559 15.36976668 -61.9375 8.5625 C-56.83118835 -0.20333499 -49.46714885 -3.86923009 -40 -7 C-26.56720477 -9.73122051 -11.47185071 -7.88934443 0 0 Z " fill="#020202" transform="translate(518,1009)"/>
<path d="M0 0 C1.85424805 0.16479492 1.85424805 0.16479492 4 1 C5.26098633 3.30981445 5.26098633 3.30981445 6.33203125 6.36328125 C6.94208008 8.03680664 6.94208008 8.03680664 7.56445312 9.74414062 C7.97630859 10.92169922 8.38816406 12.09925781 8.8125 13.3125 C15.5119625 32.3104927 26.80420346 51.53613564 44 63 C44.35191406 62.06800781 44.70382812 61.13601563 45.06640625 60.17578125 C52.64692394 40.44820034 62.01107769 22.89033489 82.12890625 13.7421875 C93.13553001 9.37630334 105.01169738 9.7464635 116 14 C116 15.32 116 16.64 116 18 C115.00742187 18.36351562 114.01484375 18.72703125 112.9921875 19.1015625 C108.64910218 20.70229812 104.32180267 22.34274561 100 24 C99.35498535 24.24556641 98.7099707 24.49113281 98.04541016 24.74414062 C82.27099467 30.82766022 71.49729232 38.84515201 64.25390625 54.1640625 C61.78504137 59.74785036 60.94107358 64.50330226 60.625 70.5625 C59.87315245 82.54108815 57.08519823 94.745165 47.7668457 102.97143555 C44.89102799 105.07989486 42.43236003 106.16976152 39.0703125 107.32421875 C37.94496094 107.71287109 36.81960938 108.10152344 35.66015625 108.50195312 C34.49355469 108.89318359 33.32695313 109.28441406 32.125 109.6875 C30.38669922 110.29174805 30.38669922 110.29174805 28.61328125 110.90820312 C17.62974498 114.65515807 17.62974498 114.65515807 12 115 C11.67 114.67 11.34 114.34 11 114 C11 108.24288533 12.79471881 105.08841314 16.70703125 100.91796875 C20.96876399 97.35321445 25.9715093 95.27511875 31 93 C35.63594594 90.70686246 39.14753075 88.44985203 42 84 C42 83.01 42 82.02 42 81 C41.50113281 80.76667969 41.00226563 80.53335938 40.48828125 80.29296875 C28.39465863 74.14845313 19.04742919 64.75069998 11 54 C10.57267578 55.92199219 10.57267578 55.92199219 10.13671875 57.8828125 C9.86093994 59.1207959 9.86093994 59.1207959 9.57958984 60.38378906 C9.20895755 62.05678638 8.84175858 63.73055037 8.47900391 65.40527344 C-0.28206756 105.67833722 -0.28206756 105.67833722 -11.75 116.625 C-15.45430585 118.88874247 -17.61815473 119.26827624 -22 119 C-22.99 118.34 -23.98 117.68 -25 117 C-25.93876268 110.6262955 -23.54963102 106.05679809 -20.875 100.375 C-10.62932862 77.49682434 -5.38634467 52.74016269 -4.8671875 27.7109375 C-4.83713623 26.56004639 -4.80708496 25.40915527 -4.77612305 24.22338867 C-4.71817637 21.91142806 -4.67726394 19.59896139 -4.65551758 17.28637695 C-4.48515155 10.4241563 -3.59011611 5.88320424 0 0 Z " fill="#020202" transform="translate(521,816)"/>
<path d="M0 0 C1.77449594 1.77449594 1.13030072 4.35017261 1.1328125 6.75 C1.13474609 8.49796875 1.13474609 8.49796875 1.13671875 10.28125 C1.13285156 11.5084375 1.12898437 12.735625 1.125 14 C1.13080078 15.84078125 1.13080078 15.84078125 1.13671875 17.71875 C1.13542969 18.8840625 1.13414062 20.049375 1.1328125 21.25 C1.13168457 22.32765625 1.13055664 23.4053125 1.12939453 24.515625 C1 27 1 27 0 28 C-2.18788873 27.99406272 -4.37570955 27.94456916 -6.5625 27.875 C-14.45956662 27.83491337 -20.60952323 28.82208208 -26.69462585 34.38258362 C-32.16754068 41.16376748 -32.58953064 49.54313974 -32.57421875 57.87890625 C-32.59546562 59.5188279 -32.59546562 59.5188279 -32.61714172 61.19187927 C-32.65874883 64.64885578 -32.67423928 68.10530923 -32.6875 71.5625 C-32.71654171 75.05158502 -32.75098702 78.54053834 -32.78999329 82.02952576 C-32.81252024 84.19292715 -32.82831546 86.35641083 -32.83683777 88.51991272 C-32.84738945 89.97294044 -32.84738945 89.97294044 -32.8581543 91.45532227 C-32.86337349 92.73911522 -32.86337349 92.73911522 -32.86869812 94.04884338 C-33 96 -33 96 -34 97 C-35.84159023 97.09959621 -37.68696967 97.13080411 -39.53125 97.1328125 C-40.65144531 97.13410156 -41.77164063 97.13539062 -42.92578125 97.13671875 C-44.10527344 97.13285156 -45.28476562 97.12898438 -46.5 97.125 C-48.26923828 97.13080078 -48.26923828 97.13080078 -50.07421875 97.13671875 C-51.19441406 97.13542969 -52.31460938 97.13414063 -53.46875 97.1328125 C-54.50451172 97.13168457 -55.54027344 97.13055664 -56.60742188 97.12939453 C-59 97 -59 97 -60 96 C-60.09525367 93.07805335 -60.12552736 90.17979671 -60.11352539 87.25756836 C-60.11367142 86.3405867 -60.11381744 85.42360504 -60.1139679 84.47883606 C-60.1132684 81.43248164 -60.10547428 78.38618755 -60.09765625 75.33984375 C-60.0957922 73.23377007 -60.09436824 71.12769597 -60.09336853 69.0216217 C-60.08954231 63.46657117 -60.07971114 57.91154659 -60.06866455 52.35650635 C-60.05845267 46.6927526 -60.05387139 41.02899467 -60.04882812 35.36523438 C-60.03808896 24.24347815 -60.0210113 13.12174123 -60 2 C-56.39625537 1.85499356 -52.79325758 1.76603237 -49.1875 1.6875 C-48.16333984 1.64560547 -47.13917969 1.60371094 -46.08398438 1.56054688 C-43.30743796 1.51502972 -40.73716384 1.52781532 -38 2 C-34.84992509 5.38169806 -34.13248783 9.55716315 -33 14 C-32.5875 13.46890625 -32.175 12.9378125 -31.75 12.390625 C-23.43956995 2.22518825 -13.02534484 -0.96901354 0 0 Z " fill="#030303" transform="translate(808,1002)"/>
<path d="M0 0 C7.00949519 29.83970242 -3.09007942 65.16729035 -17 91 C-27.56 91 -38.12 91 -49 91 C-49 73.59540996 -44.64352051 61.55583418 -33.82739258 47.99853516 C-23.3980783 34.77772425 -18.04959753 20.7204009 -16 4 C-13.71144298 3.13656269 -11.4198072 2.2840189 -9.125 1.4375 C-8.47402344 1.19064453 -7.82304687 0.94378906 -7.15234375 0.68945312 C-2.2265625 -1.11328125 -2.2265625 -1.11328125 0 0 Z " fill="#FAFAFA" transform="translate(479,826)"/>
<path d="M0 0 C1.07507813 -0.00128906 2.15015625 -0.00257813 3.2578125 -0.00390625 C4.38960938 -0.00003906 5.52140625 0.00382813 6.6875 0.0078125 C7.81929688 0.00394531 8.95109375 0.00007812 10.1171875 -0.00390625 C11.19226563 -0.00261719 12.26734375 -0.00132812 13.375 0 C14.86580078 0.00169189 14.86580078 0.00169189 16.38671875 0.00341797 C18.6875 0.1328125 18.6875 0.1328125 19.6875 1.1328125 C19.78273905 4.02424401 19.81303027 6.89173314 19.80102539 9.78344727 C19.80117142 10.69067535 19.80131744 11.59790344 19.8014679 12.53262329 C19.80076841 15.54651235 19.79297434 18.56034043 19.78515625 21.57421875 C19.7832922 23.65787217 19.78186824 25.74152604 19.78086853 27.82518005 C19.77704234 33.32104696 19.7672112 38.81688763 19.75616455 44.31274414 C19.7459526 49.91617477 19.74137137 55.51960963 19.73632812 61.12304688 C19.72558902 72.1263155 19.70799141 83.12955771 19.6875 94.1328125 C11.1075 94.1328125 2.5275 94.1328125 -6.3125 94.1328125 C-6.33504957 82.02438974 -6.35341424 69.91598081 -6.36431217 57.80754185 C-6.36954136 52.18573288 -6.37663966 46.56393897 -6.38793945 40.94213867 C-6.39876706 35.52162973 -6.40477656 30.1011353 -6.40737724 24.68061638 C-6.40923172 22.60766305 -6.41285277 20.53471056 -6.41823006 18.46176338 C-6.4254388 15.56897357 -6.42649101 12.67624454 -6.42602539 9.78344727 C-6.42962067 8.91742386 -6.43321594 8.05140045 -6.43692017 7.15913391 C-6.42437839 0.00729096 -6.42437839 0.00729096 0 0 Z " fill="#000000" transform="translate(417.3125,1004.8671875)"/>
<path d="M0 0 C10.93920526 6.16695596 17.32412736 14.19127901 21.4140625 25.9765625 C22.44950503 30.41746047 22.55112959 34.45892374 22.48046875 38.99609375 C22.47982422 39.79789063 22.47917969 40.5996875 22.47851562 41.42578125 C22.4533313 44.77249848 22.35774993 47.5517502 21.29296875 50.74609375 C22.40671875 50.66359375 23.52046875 50.58109375 24.66796875 50.49609375 C31.85801053 50.53427096 38.0997181 53.26383239 43.35546875 58.12109375 C46.11673022 61.16305083 47.48597152 63.50003278 47.29296875 67.74609375 C46.29296875 69.68359375 46.29296875 69.68359375 44.29296875 70.74609375 C40.61221723 70.52957895 37.40675944 69.78119661 33.88671875 68.6953125 C27.99197071 67.20919003 22.01423707 67.61193548 15.98046875 67.74609375 C13.65122601 67.797034 11.32176789 67.83912695 8.9921875 67.87109375 C7.96955811 67.89429688 6.94692871 67.9175 5.89331055 67.94140625 C3.29296875 67.74609375 3.29296875 67.74609375 0.29296875 65.74609375 C-2.29534621 57.67664122 1.65663863 51.93030272 5.29296875 44.74609375 C7.59923609 37.82729173 6.41327268 33.09835024 3.29296875 26.68359375 C-1.64125257 17.10057061 -8.6746641 11.52451774 -18.70703125 7.74609375 C-23.98137122 6.17430454 -29.33642765 4.93882085 -34.70703125 3.74609375 C-34.70703125 2.42609375 -34.70703125 1.10609375 -34.70703125 -0.25390625 C-22.47739936 -5.37435026 -12.28693526 -5.69135096 0 0 Z " fill="#030303" transform="translate(312.70703125,864.25390625)"/>
<path d="M0 0 C7.02191521 3.35316176 10.5305916 9.30426277 14 16 C14.36029297 16.59699707 14.72058594 17.19399414 15.09179688 17.80908203 C16.2416362 20.58291485 16.05568794 22.44312065 15.7578125 25.421875 C15.66113281 26.44667969 15.56445312 27.47148438 15.46484375 28.52734375 C15.35269531 29.59082031 15.24054688 30.65429688 15.125 31.75 C15.02058594 32.82894531 14.91617188 33.90789063 14.80859375 35.01953125 C14.54952206 37.68090411 14.27962376 40.34072102 14 43 C2.26264119 39.30357207 -7.98073067 34.12594424 -14.16015625 22.890625 C-16.15799959 18.09580099 -17.25347997 13.10477347 -15.23828125 8.11328125 C-11.69466363 1.43223144 -7.73177176 -1.67287425 0 0 Z " fill="#FAFAFB" transform="translate(209,855)"/>
<path d="M0 0 C6.90695179 4.06894684 9.19206244 8.78159354 11.3671875 16.39453125 C-4.4728125 16.39453125 -20.3128125 16.39453125 -36.6328125 16.39453125 C-33.6220955 8.36595258 -31.63896997 4.19963436 -24.26953125 0.0703125 C-15.75261222 -3.70468271 -8.53886557 -3.76401707 0 0 Z " fill="#F9FAFA" transform="translate(699.6328125,1025.60546875)"/>
<path d="M0 0 C1.07507813 -0.00128906 2.15015625 -0.00257813 3.2578125 -0.00390625 C4.38960938 -0.00003906 5.52140625 0.00382813 6.6875 0.0078125 C7.81929688 0.00394531 8.95109375 0.00007812 10.1171875 -0.00390625 C11.19226563 -0.00261719 12.26734375 -0.00132812 13.375 0 C14.86580078 0.00169189 14.86580078 0.00169189 16.38671875 0.00341797 C18.6875 0.1328125 18.6875 0.1328125 19.6875 1.1328125 C19.78696453 2.90140443 19.81830217 4.67392701 19.8203125 6.4453125 C19.82224609 8.05792969 19.82224609 8.05792969 19.82421875 9.703125 C19.82035156 10.83492187 19.81648438 11.96671875 19.8125 13.1328125 C19.81830078 14.83050781 19.81830078 14.83050781 19.82421875 16.5625 C19.82292969 17.63757813 19.82164062 18.71265625 19.8203125 19.8203125 C19.81918457 20.81417969 19.81805664 21.80804687 19.81689453 22.83203125 C19.6875 25.1328125 19.6875 25.1328125 18.6875 26.1328125 C15.06944129 26.38483134 11.4382992 26.31803785 7.8125 26.3203125 C6.28302734 26.33868164 6.28302734 26.33868164 4.72265625 26.35742188 C3.25505859 26.36032227 3.25505859 26.36032227 1.7578125 26.36328125 C0.85820801 26.36739014 -0.04139648 26.37149902 -0.96826172 26.37573242 C-3.3125 26.1328125 -3.3125 26.1328125 -6.3125 24.1328125 C-6.66894531 21.81030273 -6.66894531 21.81030273 -6.640625 18.94140625 C-6.63546875 17.91466797 -6.6303125 16.88792969 -6.625 15.83007812 C-6.604375 14.75435547 -6.58375 13.67863281 -6.5625 12.5703125 C-6.55734375 11.49072266 -6.5521875 10.41113281 -6.546875 9.29882812 C-6.45343435 0.00732394 -6.45343435 0.00732394 0 0 Z " fill="#010101" transform="translate(416.3125,958.8671875)"/>
<path d="M0 0 C0.33 0 0.66 0 1 0 C1 43.23 1 86.46 1 131 C0.01 131 -0.98 131 -2 131 C-2 99.98 -2 68.96 -2 37 C-1.67 37 -1.34 37 -1 37 C-0.67 24.79 -0.34 12.58 0 0 Z " fill="#C5C5C5" transform="translate(309,968)"/>
</svg>
